<svg id="Layer_1" data-name="Layer 1" xmlns="http://www.w3.org/2000/svg" viewBox="0 0 1081.21 141.23"><defs><style>.cls-1{fill:#fefefe;}.cls-2{fill:#848484;}.cls-3{fill:#1b5afe;}.cls-4{fill:#838383;}.cls-5{fill:#7e7e7e;}.cls-6{fill:#7f7f7f;}.cls-7{fill:gray;}.cls-8{fill:#7d7d7d;}</style></defs><title>title</title><path class="cls-1" d="M596.56,1201.68q-267.94,0-535.9.12c-4.23,0-4.78-1.07-4.76-5q.24-66.24,0-132.47c0-3.27.91-3.77,3.89-3.76q536.64.11,1073.29,0c3.59,0,4,.94,4,4.19q-.18,66.48,0,133c0,3.54-.85,4-4.15,4Q864.75,1201.62,596.56,1201.68Z" transform="translate(-55.9 -1060.58)"/><path class="cls-2" d="M358.88,1174.75q-14.33-15.91-28.65-31.81-15.64-17.42-31.29-34.84c-1-1.12-1.67-3.13-3.9-2.35-.94.77-.54,1.84-.54,2.78q0,33.08,0,66.16a6.67,6.67,0,0,0,.33,2.94c-6.38,2.47-7.79,1.69-7.79-4.4v-90.86l64.87,73.35c1.78-1.65,1-3.4,1.05-4.92.06-18.48.1-37,0-55.44,0-3.2.51-4.71,4.28-4.73,4.36,0,4,2.3,3.61,5.11-.76,3.11-.32,6.27-.33,9.41-.05,21.74,0,43.48-.1,65.22C360.4,1171.82,361.84,1174.18,358.88,1174.75Z" transform="translate(-55.9 -1060.58)"/><path class="cls-2" d="M76,1134.52C74.74,1154,90.09,1168.8,104.78,1173a39.83,39.83,0,0,0,43.92-16.65,19.38,19.38,0,0,0,2.12-3.37c1.25-3.12,3-2.19,5.08-1s3.36,2.26,1.65,5c-9.65,15.36-25.51,27.4-49.05,24.77-17-1.89-34.64-16.59-38.92-34.32-7.71-31.88,14.34-57.61,41.76-59.83,20.63-1.67,35.26,7.92,46,24.69,1.42,2.2,1.63,3.67-1.1,5-2.49,1.25-4.1,2-5.91-1.24-6.41-11.61-16.18-18.4-29.47-20.54C97.63,1091.79,74.38,1111.77,76,1134.52Z" transform="translate(-55.9 -1060.58)"/><path class="cls-2" d="M796.85,1182c-23.26-.12-44.87-19.14-46.93-40.79-2.77-29.24,16.53-49.34,38.59-53.13,20.56-3.53,39.48,4.84,50.8,24.73,1.55,2.71.17,3.37-1.59,4.47-2,1.26-3.65,2-5.23-.78-5.16-9.15-12.45-15.93-22.58-19.32A40,40,0,0,0,757.2,1135c-.08,17.3,11.78,32.57,28.27,37.65,16.71,5.14,34-.91,44.29-15.5a28.37,28.37,0,0,0,2.42-3.77c1.91-3.94,4.34-1.55,6.57-.56,3.33,1.47.82,3.38,0,4.68C828.82,1172.59,815.72,1182.26,796.85,1182Z" transform="translate(-55.9 -1060.58)"/><path class="cls-3" d="M667.26,1094.08c-1,1.09-1.89,2.06-2.81,3-11.53,11.55-23,23.19-34.67,34.56-2.94,2.86-2.66,4.49.1,7.18,11.43,11.17,22.63,22.58,34,33.85,2,1.94,3.7,3.13.7,6.12-3.18,3.17-4.42.84-6.22-1-11.43-11.41-22.93-22.75-34.22-34.31-2.46-2.52-3.76-2.48-6.2,0-11.4,11.67-23.26,22.9-34.43,34.79-3.78,4-5,.09-6.83-1.13-3.15-2,0-3.31,1.15-4.44,11.35-11.49,22.71-23,34.26-34.26,2.71-2.64,3.05-4.12.12-7-11.6-11.23-22.84-22.84-34.4-34.11-2.57-2.51-3.07-4-.13-6.54s3.42-.93,5.39,1.09c12,12.27,24.27,24.23,36.41,36.34,1.45,1.45,1.87,1.07,3.27-.36,12.09-12.4,24.36-24.61,36.65-36.82.77-.76,1.37-2.81,3-1.55A57.46,57.46,0,0,1,667.26,1094.08Z" transform="translate(-55.9 -1060.58)"/><path class="cls-2" d="M995.25,1082.29c4.82,9.62,9.36,18.61,13.84,27.64q15.38,31,30.71,62c1.14,2.32,2.36,4.37-1.09,6.13s-4.4-.6-5.54-2.83q-11.13-21.7-22.21-43.45c-5.13-10-10.27-20-15.87-31-2.9,5.39-5.43,10-7.81,14.58q-15.48,30.12-30.9,60.26c-.88,1.71-1.29,4.55-4.53,2.81-2.62-1.4-3.52-2.9-2-5.94q22.2-44.28,44.17-88.66A19.19,19.19,0,0,1,995.25,1082.29Z" transform="translate(-55.9 -1060.58)"/><path class="cls-2" d="M423.48,1168.71c3.18-6.17,6.33-12.15,9.38-18.19,9.49-18.85,19-37.69,28.36-56.61,1.64-3.31,3.43-3.93,6.63-2.24,2.13,1.12,2.46,2.13,1.37,4.25q-22.68,44.38-45.27,88.81c-.13.26-.45.42-.73.67-1.73-.74-2-2.54-2.73-3.94q-21.23-42-42.31-84.12c-1-2-3.05-4,.67-6,3.54-1.92,4.63-.17,5.93,2.41q17.6,34.9,35.26,69.78C420.91,1165.24,421.37,1167.25,423.48,1168.71Z" transform="translate(-55.9 -1060.58)"/><path class="cls-4" d="M511.45,1082.26c13.68,27.34,27.05,54.07,40.43,80.8q2.45,4.9,4.9,9.81c1,2,2.22,3.62-.95,5.16-2.83,1.38-4.24,1.25-5.74-1.72-11.87-23.59-23.89-47.11-35.86-70.65-.82-1.61-1.66-3.22-2.53-4.9-2.35,1-2.6,3.17-3.43,4.82q-17.62,35-35,70c-1.33,2.67-2.32,4.45-5.8,2.73-3.69-1.81-1.9-3.89-.87-6.06,13.92-29.24,28.4-58.2,43.21-87C510.13,1084.5,510.56,1083.81,511.45,1082.26Z" transform="translate(-55.9 -1060.58)"/><path class="cls-2" d="M225.35,1100c-5.07,9.92-9.7,18.9-14.24,27.92-8.14,16.17-16.3,32.33-24.26,48.59-1.6,3.28-3.23,2.6-5.79,1.47s-2.4-2.34-1.29-4.53q22.08-43.56,44-87.18c.44-.87,1-1.66,1.88-3,3.06,6,5.94,11.56,8.76,17.16q18.09,36,36.14,72.09c1,1.94,2.8,3.74-.73,5.61-3.33,1.76-4.61.66-6-2.16q-17.4-34.67-34.94-69.28C227.92,1104.72,226.88,1102.85,225.35,1100Z" transform="translate(-55.9 -1060.58)"/><path class="cls-4" d="M932.82,1177.62a6.73,6.73,0,0,1-7.64,0c.54-12.63.58-25.26,0-37.89l-1.22-1.21c-13-.8-26-.22-38.94-.31-5.65,0-11.31-.49-17,.31l-1.21,1.22c-.6,12.63-.56,25.26,0,37.88a6.72,6.72,0,0,1-7.63,0c.67-2.46.3-5,.3-7.45q.06-36.48,0-73c0-1.82.28-3.67-.28-5.46a6.83,6.83,0,0,1,7.57,0c-.47,12.62-.57,25.25.05,37.87l1.22,1.22c11.3.79,22.63.26,33.94.3,7.32,0,14.64.49,22-.3l1.21-1.23c.62-12.62.52-25.24.05-37.87a6.83,6.83,0,0,1,7.58,0c-.65,4.47-.27,9-.28,13.45q-.07,33.48,0,67C932.5,1174,932.19,1175.84,932.82,1177.62Z" transform="translate(-55.9 -1060.58)"/><path class="cls-2" d="M1040.06,1094.51a6.68,6.68,0,0,1,0-7.64c2.13.66,4.31.31,6.45.31q37,0,74,0c1.82,0,3.67.28,5.46-.28a7,7,0,0,1,0,7.57c-12.62-.46-25.25-.57-37.87,0-.4.41-.81.81-1.22,1.22-.67,2-.32,4-.33,6q0,35.24,0,70.48c0,1.82-.3,3.67.31,5.45a6.72,6.72,0,0,1-7.63,0c.7-3.64.3-7.31.31-10.95q.08-32.75,0-65.49c0-1.81.33-3.67-.34-5.45l-1.22-1.21C1065.31,1093.93,1052.69,1094,1040.06,1094.51Z" transform="translate(-55.9 -1060.58)"/><path class="cls-5" d="M932.82,1177.62c-1.22-1.24-.8-2.81-.8-4.26q0-38.67,0-77.33c0-1.45-.42-3,.77-4.27Z" transform="translate(-55.9 -1060.58)"/><path class="cls-6" d="M859.22,1091.75c1.18,1.26.76,2.83.76,4.28q0,38.65,0,77.32c0,1.45.42,3-.79,4.27Z" transform="translate(-55.9 -1060.58)"/><path class="cls-6" d="M1125.93,1086.9c-1.26,1.18-2.83.77-4.28.77q-38.65,0-77.32,0c-1.45,0-3,.42-4.27-.8Z" transform="translate(-55.9 -1060.58)"/><path class="cls-6" d="M358.88,1174.75c1.86-1.57,1.08-3.71,1.09-5.6,0-22.73,0-45.45.06-68.17,0-1.76-.62-3.68.81-5.24q.07,39,.13,78c0,.81.66,2.12-.81,2.33C359.81,1176.16,359.31,1175.23,358.88,1174.75Z" transform="translate(-55.9 -1060.58)"/><path class="cls-5" d="M1079.16,1095.73c1.25,1.23.82,2.81.82,4.26q0,36.67,0,73.36c0,1.45.43,3-.8,4.27Q1079.18,1136.67,1079.16,1095.73Z" transform="translate(-55.9 -1060.58)"/><path class="cls-7" d="M1086.81,1177.62c-1.21-1.24-.79-2.82-.79-4.27q0-36.67,0-73.35c0-1.45-.43-3,.81-4.26Q1086.83,1136.68,1086.81,1177.62Z" transform="translate(-55.9 -1060.58)"/><path class="cls-7" d="M294.82,1177.63a3.43,3.43,0,0,1-.82-2.76q0-33.84,0-67.69a4.46,4.46,0,0,1,.23-1.4c0-.09.52,0,.8,0Q294.94,1141.69,294.82,1177.63Z" transform="translate(-55.9 -1060.58)"/><path class="cls-7" d="M924,1130.85c-.91,1-2.11.83-3.26.83H871.31c-1.15,0-2.35.15-3.25-.83Z" transform="translate(-55.9 -1060.58)"/><path class="cls-8" d="M868.05,1138.52c.91-1,2.11-.83,3.26-.84h49.37c1.16,0,2.36-.16,3.26.83Z" transform="translate(-55.9 -1060.58)"/><path class="cls-5" d="M866.84,1129.63c-1.55-1.91-.78-4.16-.8-6.24-.09-9-.06-17.91,0-26.87,0-1.6-.51-3.35.77-4.76Q866.82,1110.69,866.84,1129.63Z" transform="translate(-55.9 -1060.58)"/><path class="cls-5" d="M925.21,1091.75c1.73,6.34.7,12.81.69,19.2,0,6.22,1.08,12.52-.74,18.68Q925.19,1110.69,925.21,1091.75Z" transform="translate(-55.9 -1060.58)"/><path class="cls-8" d="M1040.06,1094.51c2.26-1.62,4.83-.75,7.24-.78,8.63-.12,17.26-.07,25.9,0,1.6,0,3.35-.53,4.74.81Z" transform="translate(-55.9 -1060.58)"/><path class="cls-8" d="M1088.05,1094.52c1.91-1.55,4.16-.78,6.24-.8,9-.09,17.91-.06,26.87,0,1.6,0,3.34-.52,4.76.76Z" transform="translate(-55.9 -1060.58)"/><path class="cls-5" d="M866.82,1177.62c-1.61-2.26-.74-4.83-.77-7.24-.12-8.63-.08-17.26,0-25.89,0-1.61-.53-3.36.82-4.75Q866.83,1158.69,866.82,1177.62Z" transform="translate(-55.9 -1060.58)"/><path class="cls-5" d="M925.16,1139.73c1.55,1.91.78,4.16.8,6.24.09,9,.06,17.93,0,26.89,0,1.61.52,3.35-.8,4.76Q925.18,1158.68,925.16,1139.73Z" transform="translate(-55.9 -1060.58)"/></svg>